C:\Users\nml-p\Documents\Projects\PredSim\OCP\IK_Guess_Full_cycling.mot
version=3
nRows=12
nColumns=29
inDegrees=no
endheader
time	pelvis_tilt	pelvis_list	pelvis_rotation	pelvis_tx	pelvis_ty	pelvis_tz	hip_flexion_r	hip_adduction_r	hip_rotation_r	knee_angle_r	knee_angle_r_beta	ankle_angle_r	subtalar_angle_r	mtp_angle_r	hip_flexion_l	hip_adduction_l	hip_rotation_l	knee_angle_l	knee_angle_l_beta	ankle_angle_l	subtalar_angle_l	mtp_angle_l	crank_rotation	crank_tx	crank_ty	crank_tz	pedal_rotation_r	pedal_rotation_l
0.5643254322450505	-0.201352506837579	0.0842844285170061	0.03371322151538098	-0.1049372011736098	0.7975216171881003	0.01613448809352112	0.7210480229262271	-0.1949648498206339	-0.08793990574180974	-0.7009638987293405	0.7009637960178228	-0.3102691346668002	-0.04645955697612972	-8.76868821140532e-08	1.464677971305326	-0.1272536212459783	0.06180331955019751	-2.021515417369077	2.021515260903048	-0.09685924007889778	0.009698917819339513	-4.927233452331163e-09	-62.65849150271848	-0.001997767226728186	0.2360011654904419	-0.001000999596984576	0	0
0.5718497713416512	-0.199231696099902	0.08246906309447481	0.03466073614068264	-0.1051687336711575	0.7979331309971768	0.01569098448181607	0.7125463628070534	-0.1955338135310674	-0.08985799450915351	-0.709714751791816	0.709714565800729	-0.3155896364082613	-0.04847065975457209	-1.476715334549335e-07	1.475139687922916	-0.1264580744323407	0.06202316371096463	-2.015656801384536	2.015656731153524	-0.08958130237294079	0.01079050035734332	-4.302587414272205e-08	-62.72132335579028	-0.001997508783152967	0.2360010836211387	-0.001001041239923576	0	0
0.5793741104382518	-0.1969788807573826	0.08028203837072809	0.03586019590302056	-0.105452157814893	0.7983192566878924	0.01523451988289338	0.7056182154313005	-0.1960113911345528	-0.09135688868018306	-0.721924114308255	0.7219238428643446	-0.3192577225421441	-0.05058883659576398	-1.88764487276374e-07	1.484137711159727	-0.1251361794595197	0.06228632141896351	-2.00753021845497	2.007530257541259	-0.0830231330085018	0.01165943731705337	-3.919924681277016e-08	-62.78415520886207	-0.00199725229213359	0.236001013764023	-0.001001121675685397	0	0
0.5868984495348525	-0.1948237097923846	0.0777753938575718	0.03723710967696265	-0.1057849552311762	0.7986483954660539	0.0147708510427556	0.7004195478509843	-0.1963628813024986	-0.09237665380852547	-0.7373005575635107	0.7373002187663237	-0.3214855492554002	-0.05280058912230395	-2.003771498937543e-07	1.491909095703403	-0.1233926084237165	0.06256326515677581	-1.997357280167232	1.997357441812986	-0.07690610651886477	0.01233765125080578	7.996023506011783e-09	-62.84698706193385	-0.001997007356161129	0.2360009534603487	-0.001001230605169707	0	0
0.5944227886314531	-0.1929816820836713	0.07498166073818116	0.03874983702873883	-0.1061692040091532	0.7988880728003117	0.01430661824095682	0.697367883748265	-0.1965509070283893	-0.09273290063874975	-0.7560955775224385	0.7560952115174273	-0.3222063710858549	-0.05509624268395451	-1.823275920419042e-07	1.49836309381709	-0.1212523885949625	0.06278129599020019	-1.984949777810599	1.984950058903604	-0.0709539873690745	0.01281354937158012	1.130853300530009e-07	-62.90981891500564	-0.001996752297253066	0.2360009109747515	-0.001001358645294826	0	0
0.6019471277280538	-0.1916843630193504	0.0719766363416203	0.04030814402801368	-0.1065944120555185	0.799014746837323	0.01385205021779229	0.6967355600454407	-0.1965337612348747	-0.09227363623244712	-0.7781994152072362	0.7781990669841009	-0.3215444916663855	-0.05743938096228218	-1.34183902898365e-07	1.503476376204236	-0.1188147209844135	0.06286270511772464	-1.970295005778691	1.97029540113391	-0.06481716685221171	0.01309374198834268	2.712858069914169e-07	-62.97265076807748	-0.001996498319041151	0.2360008797189979	-0.001001494568171001	0	0
0.6094714668246545	-0.1909834398665126	0.06885608317091813	0.04182202586010625	-0.1070359045320528	0.7990417044448084	0.01341574100908323	0.6983279047819633	-0.1963007545316266	-0.09099444130186728	-0.8030584749295265	0.80305819074953	-0.3197301098070582	-0.05979096526892255	-6.652980052525581e-08	1.507233330014203	-0.1162114906098667	0.06274825097435371	-1.953582379741549	1.953582864246324	-0.0582360645763986	0.01320914406549445	4.563336283516973e-07	-63.03548262114927	-0.001996250249995026	0.2360008437735208	-0.001001616030178722	0	0
0.6169958059212552	-0.1908428636570047	0.06569992717975325	0.04322573765759901	-0.1074732566696849	0.7989870221868604	0.01300659120643752	0.7019631963433991	-0.1958466991972357	-0.0888661127378077	-0.8303585561667226	0.8303583858630269	-0.3168621526855205	-0.06211950122011599	-1.205410678310278e-09	1.509449768373037	-0.1135253567875619	0.0623828918128292	-1.934846437243243	1.934846972497973	-0.05100256808051788	0.01317517965157729	6.460773882959993e-07	-63.09831447422105	-0.001996002386219709	0.236000800255814	-0.001001710031852299	0	0
0.6245201450178558	-0.1911548387718922	0.06259028425821107	0.04444939016002152	-0.1078850646354861	0.7988797268313861	0.01263493752305206	0.7074170823479098	-0.1951623319359524	-0.08585566835194257	-0.8598133718137405	0.8598133469421793	-0.3130494177284032	-0.06438682288669181	5.385436022666402e-08	1.50979461573577	-0.1108334286875773	0.06171884414388654	-1.914055263872291	1.914055809349695	-0.04294869014966022	0.01300802104231624	8.100905212618038e-07	-63.16114632729283	-0.001995771701071949	0.2360007343101757	-0.001001778192475356	0	0
0.6320444841144566	-0.1917089746410163	0.05960569575317427	0.04541353045848157	-0.1082413112719511	0.7987668978388253	0.0123128818632538	0.7143433845420881	-0.1942354486539065	-0.08198294161466663	-0.891109139134163	0.8911092752880369	-0.3083491752598339	-0.06654614493894279	8.538913018184541e-08	1.507721702148644	-0.1082283521406574	0.06072798413885734	-1.891065132539281	1.891065641417172	-0.03400694617454544	0.01272549630484187	9.026454455841127e-07	-63.22397818036463	-0.001995574192907142	0.2360006279996119	-0.001001803863894187	0	0
0.6395688232110571	-0.1921844575854781	0.05678805668451866	0.0461025317089345	-0.1085296906670783	0.7986989608424533	0.01204014114423724	0.7220888184755132	-0.1931098009039371	-0.07744102988516931	-0.923674741076652	0.9236750490693116	-0.3029715083178506	-0.06857961331002319	7.86900318546065e-08	1.503107645792167	-0.1057440697967743	0.05946521720045912	-1.866127289224236	1.86612771962025	-0.02431716828223566	0.01237181897833812	9.043396879499456e-07	-63.28681003343644	-0.001995400878923472	0.2360004917676089	-0.001001806754900462	0	0
0.6470931623076579	-0.1923149245630164	0.05417744300614714	0.04647509091261821	-0.1087415129060254	0.7987136545416814	0.01182060515818434	0.7302436546430516	-0.1917975542310404	-0.07232036035577416	-0.9572092509231387	0.9572097145576883	-0.2970262791524227	-0.07046301363513885	3.405024944773471e-08	1.495674492072926	-0.1034269086061752	0.05796104546665626	-1.839286217051195	1.83928654468096	-0.01402431349216436	0.01197380152363128	8.152062019466259e-07	-63.34964188650824	-0.001995249083815338	0.2360003188192811	-0.00100179408220732	0	0
